<svg width="80" height="80" viewBox="0 0 80 80" fill="none" xmlns="http://www.w3.org/2000/svg">
<g clip-path="url(#clip0_29_1262)">
<path d="M37.2112 65.3269C37.2079 65.3273 37.2045 65.3277 37.2012 65.3282C37.2063 65.3276 37.2115 65.3269 37.2112 65.3269Z" fill="#909E80"/>
<path d="M37.2015 65.3281C37.1963 65.3289 37.1911 65.3295 37.1914 65.3295C37.1949 65.3292 37.1982 65.3286 37.2015 65.3281Z" fill="#909E80"/>
<path d="M44.42 60.254V27.7854C44.42 27.3755 44.0922 27.0432 43.6875 27.0432C43.2829 27.0432 42.955 27.3754 42.955 27.7854V36.3988C41.2978 27.586 40.6878 19.0486 40.5324 16.4846H42.955V24.8164C42.955 25.2264 43.2828 25.5587 43.6875 25.5587C44.0921 25.5587 44.42 25.2265 44.42 24.8164V15.7423C44.42 15.3323 44.0922 15 43.6875 15H28.7325C28.3279 15 28 15.3322 28 15.7423V46.4019C28 46.8119 28.3278 47.1442 28.7325 47.1442C29.1372 47.1442 29.465 46.812 29.465 46.4019V26.6521C30.9306 31.9561 32.7756 43.3929 30.6086 64.182H29.465V55.371C29.465 54.9611 29.1372 54.6287 28.7325 54.6287C28.3278 54.6287 28 54.961 28 55.371V64.9242C28 65.3342 28.3278 65.6665 28.7325 65.6665H31.266L31.2678 65.6666L31.2698 65.6665H34.1454L43.778 65.6602C43.7937 65.6583 43.8095 65.656 43.8252 65.6529C43.836 65.6508 43.8464 65.6483 43.857 65.6457C43.8679 65.643 43.8788 65.6403 43.8897 65.6372C43.9023 65.6335 43.9147 65.6294 43.9271 65.6251C43.9319 65.6234 43.9367 65.6222 43.9415 65.6204C43.9452 65.619 43.9486 65.6172 43.9523 65.6157C43.9672 65.6099 43.9819 65.6034 43.9963 65.5966C44.0046 65.5926 44.0129 65.5887 44.0211 65.5845C44.0334 65.5781 44.0455 65.5713 44.0575 65.5641C44.0671 65.5584 44.0767 65.5527 44.0861 65.5465C44.0957 65.5402 44.105 65.5335 44.1143 65.5267C44.1248 65.5191 44.1353 65.5114 44.1453 65.5032C44.1532 65.4969 44.1606 65.4902 44.1681 65.4836C44.1785 65.4744 44.1889 65.4652 44.1988 65.4554C44.2058 65.4485 44.2124 65.4412 44.2191 65.434C44.2284 65.424 44.2376 65.4141 44.2463 65.4037C44.2534 65.3953 44.2599 65.3866 44.2666 65.3778C44.2741 65.3681 44.2815 65.3584 44.2883 65.3484C44.2955 65.3379 44.3022 65.327 44.3089 65.3163C44.3144 65.3073 44.32 65.2985 44.325 65.2894C44.332 65.2771 44.3382 65.2644 44.3445 65.2515C44.3485 65.2431 44.3527 65.2349 44.3564 65.2264C44.3622 65.213 44.3674 65.1995 44.3726 65.1857C44.3758 65.1769 44.3792 65.1681 44.3822 65.1592C44.3865 65.1461 44.3902 65.1329 44.3937 65.1196C44.3965 65.1091 44.3993 65.0986 44.4017 65.0881C44.4043 65.0763 44.4065 65.0643 44.4085 65.0523C44.4108 65.0395 44.4128 65.0266 44.4144 65.0136C44.4156 65.0034 44.4164 64.9932 44.4173 64.9829C44.4185 64.9678 44.4193 64.9528 44.4196 64.9376C44.4197 64.9332 44.4202 64.9288 44.4202 64.9243C44.4201 64.922 44.42 60.2563 44.42 60.254ZM33.5119 64.1819H32.0815C33.0273 55.0271 33.7347 42.2148 32.0143 31.5632C31.0856 25.8135 29.8292 23.0451 29.4648 22.3301V16.4846H30.1859C31.0392 17.6324 32.6565 20.778 33.7927 26.1407C34.6978 30.4123 35.1843 35.4277 35.2387 41.0476C35.3049 47.9053 34.7238 55.6858 33.5119 64.1819ZM38.8738 64.1819C38.2937 61.3576 37.8009 57.0901 38.5277 55.3553C38.8966 55.8155 39.6761 57.0463 41.0661 60.3033C41.7014 61.7917 42.2715 63.2526 42.6256 64.1819H38.8738ZM42.955 61.0182C42.7455 60.5058 42.5226 59.9717 42.2921 59.4374C40.0661 54.2758 39.1995 53.7413 38.5621 53.6454C38.1798 53.5877 37.8211 53.7415 37.5778 54.0667C36.015 56.1552 36.9278 61.8725 37.3802 64.1819H34.9927C36.2058 55.6154 36.7807 47.7681 36.7019 40.845C36.6365 35.1044 36.1238 29.9783 35.1782 25.6089C34.1344 20.7863 32.7906 17.9401 31.9304 16.4845H35.8529C36.1183 18.6914 37.0338 26.1839 38.2087 34.4444C40.0679 47.5169 41.6645 56.2398 42.955 60.3778V61.0182ZM42.955 54.1954C40.4892 42.1952 37.8667 20.9375 37.3289 16.4846H39.0648C39.2502 19.5845 40.1503 32.29 42.9549 43.2244L42.955 54.1954Z" fill="#909E80"/>
<path d="M37.1207 65.3335C37.1443 65.3335 37.168 65.332 37.1917 65.3296L37.1182 65.3333C37.119 65.3333 37.1198 65.3335 37.1207 65.3335Z" fill="#909E80"/>
<path d="M64.4019 15H62.1388C62.137 15 62.1352 15 62.1333 15H54.0823C54.0814 15 54.0804 15 54.0793 15H49.4469C49.0423 15 48.7144 15.3322 48.7144 15.7423V24.5704C48.7144 24.5729 48.7144 24.5753 48.7144 24.5779V34.6063C48.7144 34.6077 48.7144 34.6091 48.7144 34.6106V64.9243C48.7144 65.3343 49.0422 65.6666 49.4469 65.6666H64.4019C64.8065 65.6666 65.1344 65.3344 65.1344 64.9243V54.376C65.1344 53.966 64.8066 53.6337 64.4019 53.6337C63.9973 53.6337 63.6694 53.9659 63.6694 54.376V64.1819H61.5126C61.4158 55.6423 61.6342 43.6534 63.1461 33.6052C63.3206 32.4453 63.4974 31.4138 63.6695 30.5026V51.407C63.6695 51.817 63.9973 52.1493 64.402 52.1493C64.8066 52.1493 65.1345 51.8171 65.1345 51.407V24.5663C65.1345 24.565 65.1345 24.5636 65.1345 24.5624V15.7423C65.1344 15.3322 64.8066 15 64.4019 15ZM54.3324 29.7991C54.6294 29.7991 54.9078 29.6561 55.097 29.3999C55.3484 29.0595 55.8716 28.3512 55.3982 21.7985C55.2442 19.667 55.0319 17.5934 54.9119 16.4846H56.2889C56.6426 19.1485 57.8241 29.6492 55.3149 35.0847C54.9108 35.9601 54.6053 36.1267 54.5192 36.1164C54.4734 36.1109 53.3816 35.9197 51.6873 30.3892C50.8579 27.6817 50.278 24.9679 50.1794 24.4967V22.469C50.3537 22.9283 50.5368 23.4019 50.7246 23.8755C52.8197 29.1611 53.5571 29.6881 54.1853 29.7875C54.2346 29.7953 54.2837 29.7991 54.3324 29.7991ZM50.1793 16.4846H53.4381C53.5502 17.5095 53.7677 19.6017 53.9274 21.7736C54.1765 25.1654 54.1491 26.8685 54.0712 27.7177C53.1907 26.2017 51.6232 22.3857 50.1794 18.1664V16.4846H50.1793ZM52.7284 64.182H50.1794V40.1021C51.4847 45.6052 53.1523 54.7347 52.7284 64.182ZM54.1948 64.1819C54.5381 56.3368 53.4628 48.7905 52.4807 43.7737C51.4749 38.6359 50.3947 35.1501 50.1793 34.4762V30.4694H50.1794C50.2143 30.5861 50.2494 30.7028 50.2852 30.8197C51.2151 33.8575 52.5174 37.3726 54.3481 37.5907C54.4132 37.5986 54.4775 37.6024 54.5412 37.6024C55.3568 37.6023 56.0627 36.9681 56.6417 35.7137C57.9364 32.9093 58.4975 28.6676 58.3093 23.1064C58.2111 20.2026 57.931 17.7297 57.7682 16.4846H61.2463C60.8028 18.7916 59.583 25.343 58.4513 33.2909C57.1844 42.1876 55.7791 54.6574 56.158 64.182H54.1948V64.1819ZM63.6693 24.4368C63.4435 25.0552 62.56 27.6967 61.7156 33.2627C60.1744 43.4228 59.95 55.5443 60.0475 64.182H57.6239C56.9382 47.3526 61.9084 20.7834 62.7394 16.4846H63.6694V24.4368H63.6693Z" fill="#909E80"/>
<path d="M29.4644 64.5801L29.4598 58.0849C29.4597 57.8935 29.3835 57.71 29.2481 57.5748C29.1126 57.4395 28.929 57.3636 28.7376 57.3638L28.0536 57.3642C29.311 55.6118 30.0416 53.5367 30.1594 51.383C30.2771 49.2294 29.7772 47.0869 28.7183 45.2078L28.0063 43.9443L28.002 37.8787C28.0018 37.222 27.8224 36.5778 27.483 36.0157C27.1436 35.4535 26.6571 34.9946 26.0761 34.6885C25.4951 34.3825 24.8416 34.2409 24.186 34.2789C23.5304 34.317 22.8976 34.5334 22.3559 34.9046L26.1747 27.2044C26.4023 26.7438 26.5228 26.2377 26.5271 25.7239L26.5292 25.4137C26.5345 24.6489 26.2807 23.9049 25.8091 23.3028C25.3375 22.7007 24.6759 22.276 23.9321 22.098C23.1883 21.92 22.4061 21.9991 21.713 22.3224C21.0199 22.6457 20.4567 23.1942 20.1152 23.8786L15.6936 32.7373C15.2444 33.6399 15.0104 34.6343 15.0101 35.6426L15.0307 64.5904C15.0308 64.7818 15.107 64.9653 15.2424 65.1006C15.3779 65.2358 15.5615 65.3117 15.7529 65.3116L28.7433 65.3023C28.9347 65.3022 29.1182 65.226 29.2534 65.0906C29.3887 64.9551 29.4646 64.7715 29.4644 64.5801ZM16.9851 33.3818L21.4066 24.5232C21.602 24.1318 21.9237 23.8178 22.3197 23.6322C22.7158 23.4465 23.1629 23.3999 23.5887 23.5001C24.0145 23.6002 24.394 23.8412 24.6657 24.1839C24.9374 24.5267 25.0855 24.9512 25.0859 25.3886L25.0859 25.4038L25.0838 25.7139C25.0813 26.0086 25.0122 26.2989 24.8817 26.5631L20.8583 34.6759C20.8088 34.7758 20.7831 34.8857 20.7831 34.9971L20.7898 44.3791C20.7899 44.5705 20.8661 44.754 21.0015 44.8892C21.137 45.0245 21.3206 45.1004 21.512 45.1002C21.7034 45.1001 21.8869 45.0239 22.0221 44.8885C22.1574 44.753 22.2333 44.5694 22.2332 44.378L22.2285 37.8828C22.2281 37.3086 22.4558 36.7578 22.8616 36.3515C23.2673 35.9451 23.8178 35.7166 24.392 35.7162C24.9662 35.7158 25.5171 35.9435 25.9234 36.3493C26.3297 36.755 26.5582 37.3055 26.5586 37.8798L26.5631 44.1343C26.5632 44.2583 26.5952 44.3801 26.656 44.4881L27.4608 45.9164C28.4273 47.6319 28.8591 49.597 28.7008 51.5597C28.5425 53.5223 27.8012 55.3929 26.5722 56.9313L26.2257 57.3655L16.4689 57.3725L16.4534 35.6414C16.4538 34.8573 16.6358 34.0839 16.9851 33.3818ZM16.4736 63.8677L16.47 58.8159L28.0169 58.8076L28.0205 63.8594L16.4736 63.8677Z" fill="#909E80"/>
<path d="M18.6369 61.3402C18.637 61.5544 18.7007 61.7636 18.8197 61.9416C18.9388 62.1195 19.108 62.2581 19.3059 62.3399C19.5038 62.4217 19.7214 62.443 19.9314 62.4011C20.1414 62.3592 20.3342 62.2559 20.4855 62.1044C20.6368 61.9529 20.7398 61.7599 20.7814 61.5499C20.823 61.3399 20.8014 61.1222 20.7193 60.9245C20.6373 60.7267 20.4984 60.5577 20.3203 60.4389C20.1422 60.3201 19.9328 60.2567 19.7187 60.2569C19.4317 60.2574 19.1566 60.3717 18.9537 60.5748C18.7509 60.7779 18.637 61.0532 18.6369 61.3402Z" fill="#909E80"/>
</g>
<rect x="0.5" y="0.5" width="79" height="79" rx="39.5" stroke="#909E80"/>
<defs>
<clipPath id="clip0_29_1262">
<rect width="50" height="50.6667" fill="white" transform="translate(15 14.6667)"/>
</clipPath>
</defs>
</svg>
