<svg width="80" height="80" viewBox="0 0 80 80" fill="none" xmlns="http://www.w3.org/2000/svg">
<g clip-path="url(#clip0_29_1277)">
<path d="M62.8595 32.6394H56.5278L56.485 31.7027C56.4679 31.3282 56.2693 30.9878 55.9539 30.7919L54.4211 29.8399L55.3685 29.3992C55.927 29.1393 56.1728 28.4674 55.9164 27.9014L54.843 25.5317C54.6886 25.1912 54.3787 24.9508 54.014 24.889L52.0643 24.5582L52.86 23.5548C53.2279 23.0909 53.1761 22.4133 52.7419 22.0123L50.8232 20.2404C50.5498 19.9879 50.1719 19.8895 49.8122 19.9769L48.0641 20.402L48.4264 19.4116C48.64 18.8277 48.345 18.1764 47.7687 17.9598L45.3562 17.0535C45.0095 16.9232 44.6227 16.9753 44.3214 17.1929L42.7119 18.3561L42.5744 17.0763C42.5107 16.4847 41.9983 16.0427 41.4145 16.0703L38.8215 16.1921C38.452 16.2095 38.116 16.4106 37.9227 16.7303L36.9832 18.2835L36.5483 17.3235C36.2919 16.7575 35.6287 16.5083 35.0702 16.7683L33.3849 17.5522C33.1074 17.6813 32.8921 17.9233 32.7941 18.2161L31.9295 20.8007L30.781 19.8654C30.3231 19.4925 29.6544 19.545 29.2587 19.985L27.9941 21.391C27.7886 21.6196 27.6836 21.9276 27.7063 22.2362L27.8961 24.8103L26.6923 24.3581C26.1162 24.1416 25.4734 24.4405 25.2596 25.0246L24.6148 26.7867C24.5088 27.0767 24.5254 27.402 24.6605 27.6793L25.8527 30.1265L24.3879 30.2881C23.8039 30.3524 23.3677 30.8686 23.3949 31.4634L23.4487 32.6393H17.1405C15.9603 32.6394 15 33.6125 15 34.8085V40.9862V49.7974C15 50.9934 15.9603 51.9665 17.1405 51.9665H18.4097L16.7343 61.787C16.5435 62.9057 17.3932 63.9312 18.5159 63.9312H20.058C20.8454 63.9312 21.5368 63.4211 21.7787 62.6618L23.465 57.3674H56.535L58.2214 62.6619C58.4633 63.4212 59.1547 63.9313 59.9421 63.9313H61.4842C62.6045 63.9313 63.457 62.9082 63.2658 61.7871L62.5938 57.8473C62.5249 57.4434 62.1458 57.1724 61.7474 57.2424C61.3487 57.3123 61.0814 57.6963 61.1504 58.1002L61.8225 62.0399C61.8587 62.2526 61.6975 62.4469 61.4843 62.4469H59.9422C59.7927 62.4469 59.6614 62.3501 59.6155 62.206L55.6835 49.861H59.7449L60.566 54.6739C60.6348 55.077 61.0131 55.3487 61.4125 55.2788C61.8111 55.2089 62.0783 54.825 62.0094 54.421L61.2314 49.8611H62.8598C64.04 49.8611 65.0003 48.8881 65.0003 47.6921V34.8085C65 33.6125 64.0397 32.6394 62.8595 32.6394ZM26.5088 31.5474C27.2776 31.4625 27.7301 30.6272 27.3877 29.9244L26.0408 27.1595L26.5113 25.8734L27.8983 26.3945C28.6603 26.6809 29.458 26.0711 29.3976 25.2512L29.1783 22.2783L30.1198 21.2314C31.1137 21.9225 31.5437 22.7361 32.4122 22.4797C32.7613 22.3765 33.0394 22.1068 33.1562 21.7578L34.1331 18.8376L35.3633 18.2654L35.9258 19.507C36.2965 20.3257 37.4228 20.3976 37.8894 19.6262L39.0748 17.6662L41.154 17.5684L41.3206 19.1188C41.4128 19.9767 42.3818 20.4181 43.0761 19.9163L45.0212 18.5106L46.9314 19.2284L46.4627 20.5095C46.3192 20.9014 46.4002 21.3392 46.674 21.6519C46.9479 21.9646 47.3672 22.0983 47.7681 22.0006L49.9739 21.4642L51.5123 22.8849L50.5482 24.1005C50.0147 24.7732 50.3922 25.7796 51.2331 25.9222L53.5894 26.322L54.4393 28.1983L53.2138 28.7683C52.4043 29.1449 52.3371 30.2865 53.0963 30.7579L55.0305 31.9592L55.0616 32.6394H48.0205C48.0193 32.5995 48.0186 32.5595 48.0168 32.52C47.8113 28.0306 44.0613 24.5665 39.6281 24.7731C35.4182 24.9711 32.1096 28.4399 31.981 32.6393H24.915L24.8733 31.7277L26.5088 31.5474ZM39.8259 29.0938C37.901 29.1844 36.3783 30.7354 36.2521 32.6395H33.4455C33.5707 29.2236 36.2579 26.4178 39.696 26.2561C43.318 26.0861 46.3854 28.9179 46.5535 32.5889C46.5543 32.6055 46.5537 32.6229 46.5544 32.6395H43.7475C43.6102 30.5819 41.8687 28.9967 39.8259 29.0938ZM42.2776 32.6394H37.7219C37.844 31.524 38.7533 30.6302 39.8938 30.5765C41.1066 30.5195 42.1456 31.4334 42.2776 32.6394ZM20.3847 62.206C20.3388 62.3502 20.2075 62.4469 20.058 62.4469H18.5159C18.3029 62.4469 18.1414 62.2528 18.1777 62.0399L19.8963 51.9666H23.6462L20.3847 62.206ZM56.0621 55.883H23.9379L25.1854 51.9665H32.6679C33.7738 51.9665 34.6736 51.0547 34.6736 49.934V49.861H39.2676V50.1576C39.2676 52.1947 40.9031 53.852 42.9134 53.852C44.9236 53.852 46.5592 52.1947 46.5592 50.1576V49.861H54.1439L56.0621 55.883ZM34.6736 48.3767V44.9976H37.9584C38.6804 44.9976 39.2677 45.5928 39.2677 46.3244V48.3767H34.6736ZM40.7324 50.1576V49.861H45.0944V50.1576C45.0944 51.3762 44.116 52.3676 42.9135 52.3676C41.7108 52.3676 40.7324 51.3763 40.7324 50.1576ZM63.5352 47.692C63.5352 48.0695 63.232 48.3767 62.8595 48.3767C62.1434 48.3767 41.2272 48.3767 40.7324 48.3767V46.3244C40.7324 44.7743 39.488 43.5132 37.9583 43.5132H34.6735V42.2765C34.6735 41.1558 33.7737 40.244 32.6678 40.244H23.0442C22.6397 40.244 22.3118 40.5763 22.3118 40.9862C22.3118 41.396 22.6397 41.7283 23.0442 41.7283H32.6678C32.966 41.7283 33.2087 41.9743 33.2087 42.2765V49.934C33.2087 50.2362 32.966 50.4821 32.6678 50.4821C30.8341 50.4821 18.7451 50.4821 17.1404 50.4821C16.7679 50.4821 16.4647 50.1749 16.4647 49.7974V41.7283H19.6201C20.0246 41.7283 20.3525 41.396 20.3525 40.9862C20.3525 40.5763 20.0246 40.244 19.6201 40.244H16.4648V34.8085C16.4648 34.431 16.768 34.1238 17.1405 34.1238H62.8595C63.232 34.1238 63.5352 34.431 63.5352 34.8085V47.692Z" fill="#909E80"/>
<path d="M18.52 46.1052C18.52 47.6754 19.7807 48.9528 21.3302 48.9528C22.8797 48.9528 24.1403 47.6754 24.1403 46.1052C24.1403 44.535 22.8797 43.2576 21.3302 43.2576C19.7807 43.2576 18.52 44.535 18.52 46.1052ZM22.6756 46.1052C22.6756 46.8569 22.0721 47.4684 21.3303 47.4684C20.5885 47.4684 19.985 46.8569 19.985 46.1052C19.985 45.3535 20.5885 44.7419 21.3303 44.7419C22.0721 44.7419 22.6756 45.3535 22.6756 46.1052Z" fill="#909E80"/>
<path d="M28.3434 48.9528C29.8929 48.9528 31.1535 47.6754 31.1535 46.1052C31.1535 44.535 29.8929 43.2576 28.3434 43.2576C26.7938 43.2576 25.5332 44.535 25.5332 46.1052C25.5332 47.6754 26.7938 48.9528 28.3434 48.9528ZM28.3434 44.7419C29.0852 44.7419 29.6887 45.3535 29.6887 46.1052C29.6887 46.8569 29.0852 47.4684 28.3434 47.4684C27.6016 47.4684 26.998 46.8569 26.998 46.1052C26.998 45.3535 27.6016 44.7419 28.3434 44.7419Z" fill="#909E80"/>
</g>
<rect x="0.5" y="0.5" width="79" height="79" rx="39.5" stroke="#909E80"/>
<defs>
<clipPath id="clip0_29_1277">
<rect width="50" height="50.6667" fill="white" transform="translate(15 14.6667)"/>
</clipPath>
</defs>
</svg>
