<svg width="80" height="80" viewBox="0 0 80 80" fill="none" xmlns="http://www.w3.org/2000/svg">
<path d="M46.4448 59.0626C44.7954 59.0626 43.4541 57.7213 43.4541 56.072C43.4541 54.4226 44.7954 53.0813 46.4448 53.0813C48.0941 53.0813 49.4354 54.4226 49.4354 56.072C49.4354 57.7213 48.0941 59.0626 46.4448 59.0626ZM46.4448 54.5766C45.6201 54.5766 44.9494 55.2473 44.9494 56.072C44.9494 56.8966 45.6201 57.5673 46.4448 57.5673C47.2694 57.5673 47.9401 56.8966 47.9401 56.072C47.9401 55.2473 47.2694 54.5766 46.4448 54.5766Z" fill="#909E80"/>
<path d="M39.7158 59.0626C38.0664 59.0626 36.7251 57.7213 36.7251 56.072C36.7251 54.4226 38.0664 53.0813 39.7158 53.0813C41.3651 53.0813 42.7064 54.4226 42.7064 56.072C42.7064 57.7213 41.3651 59.0626 39.7158 59.0626ZM39.7158 54.5766C38.8911 54.5766 38.2204 55.2473 38.2204 56.072C38.2204 56.8966 38.8911 57.5673 39.7158 57.5673C40.5404 57.5673 41.2111 56.8966 41.2111 56.072C41.2111 55.2473 40.5404 54.5766 39.7158 54.5766Z" fill="#909E80"/>
<path d="M24.0185 59.0655C22.3691 59.0655 21.0278 57.7242 21.0278 56.0749C21.0278 54.4255 22.3691 53.0842 24.0185 53.0842C25.6678 53.0842 27.0091 54.4255 27.0091 56.0749C27.0091 57.7242 25.6678 59.0655 24.0185 59.0655ZM24.0185 54.5796C23.1938 54.5796 22.5232 55.2502 22.5232 56.0749C22.5232 56.8996 23.1938 57.5702 24.0185 57.5702C24.8432 57.5702 25.5138 56.8996 25.5138 56.0749C25.5138 55.2502 24.8432 54.5796 24.0185 54.5796Z" fill="#909E80"/>
<path d="M17.2895 59.0655C15.6401 59.0655 14.2988 57.7242 14.2988 56.0749C14.2988 54.4255 15.6401 53.0842 17.2895 53.0842C18.9388 53.0842 20.2801 54.4255 20.2801 56.0749C20.2801 57.7242 18.9388 59.0655 17.2895 59.0655ZM17.2895 54.5796C16.4648 54.5796 15.7942 55.2502 15.7942 56.0749C15.7942 56.8996 16.4648 57.5702 17.2895 57.5702C18.1142 57.5702 18.7848 56.8996 18.7848 56.0749C18.7848 55.2502 18.1142 54.5796 17.2895 54.5796Z" fill="#909E80"/>
<path d="M49.436 54.5757H12.2428C11.8293 54.5757 11.4951 54.2415 11.4951 53.828V50.089C11.4951 49.6755 11.8293 49.3413 12.2428 49.3413H49.436C49.8495 49.3413 50.1837 49.6755 50.1837 50.089V53.828C50.1837 54.2415 49.8495 54.5757 49.436 54.5757ZM12.9904 53.0804H48.6883V50.8366H12.9904V53.0804Z" fill="#909E80"/>
<path d="M47.57 50.8382C46.127 50.8382 44.9531 49.6643 44.9531 48.2213C44.9531 46.7783 46.127 45.6045 47.57 45.6045C49.0129 45.6045 50.1868 46.7783 50.1868 48.2213C50.1868 49.6643 49.0129 50.8382 47.57 50.8382ZM47.57 47.0998C46.9516 47.0998 46.4485 47.603 46.4485 48.2213C46.4485 48.8397 46.9516 49.3428 47.57 49.3428C48.1883 49.3428 48.6914 48.8397 48.6914 48.2213C48.6914 47.603 48.1883 47.0998 47.57 47.0998Z" fill="#909E80"/>
<path d="M47.57 47.0999C46.127 47.0999 44.9531 45.926 44.9531 44.483C44.9531 43.04 46.127 41.8662 47.57 41.8662C49.0129 41.8662 50.1868 43.04 50.1868 44.483C50.1868 45.926 49.0129 47.0999 47.57 47.0999ZM47.57 43.3615C46.9516 43.3615 46.4485 43.8647 46.4485 44.483C46.4485 45.1014 46.9516 45.6045 47.57 45.6045C48.1883 45.6045 48.6914 45.1014 48.6914 44.483C48.6914 43.8647 48.1883 43.3615 47.57 43.3615Z" fill="#909E80"/>
<path d="M47.57 43.3616C46.127 43.3616 44.9531 42.1878 44.9531 40.7448C44.9531 39.3018 46.127 38.1279 47.57 38.1279C49.0129 38.1279 50.1868 39.3018 50.1868 40.7448C50.1868 42.1878 49.0129 43.3616 47.57 43.3616ZM47.57 39.6233C46.9516 39.6233 46.4485 40.1264 46.4485 40.7448C46.4485 41.3631 46.9516 41.8663 47.57 41.8663C48.1883 41.8663 48.6914 41.3631 48.6914 40.7448C48.6914 40.1264 48.1883 39.6233 47.57 39.6233Z" fill="#909E80"/>
<path d="M47.57 39.6233C46.127 39.6233 44.9531 38.4495 44.9531 37.0065C44.9531 35.5635 46.127 34.3896 47.57 34.3896C49.0129 34.3896 50.1868 35.5635 50.1868 37.0065C50.1868 38.4495 49.0129 39.6233 47.57 39.6233ZM47.57 35.885C46.9516 35.885 46.4485 36.3882 46.4485 37.0065C46.4485 37.6248 46.9516 38.128 47.57 38.128C48.1883 38.128 48.6914 37.6248 48.6914 37.0065C48.6914 36.3882 48.1883 35.885 47.57 35.885Z" fill="#909E80"/>
<path d="M47.57 35.885C46.127 35.885 44.9531 34.7112 44.9531 33.2682C44.9531 31.8252 46.127 30.6514 47.57 30.6514C49.0129 30.6514 50.1868 31.8252 50.1868 33.2682C50.1868 34.7112 49.0129 35.885 47.57 35.885ZM47.57 32.1467C46.9516 32.1467 46.4485 32.6499 46.4485 33.2682C46.4485 33.8865 46.9516 34.3897 47.57 34.3897C48.1883 34.3897 48.6914 33.8865 48.6914 33.2682C48.6914 32.6499 48.1883 32.1467 47.57 32.1467Z" fill="#909E80"/>
<path d="M47.57 32.1465C46.127 32.1465 44.9531 30.9727 44.9531 29.5297C44.9531 28.0867 46.127 26.9128 47.57 26.9128C49.0129 26.9128 50.1868 28.0867 50.1868 29.5297C50.1868 30.9727 49.0129 32.1465 47.57 32.1465ZM47.57 28.4082C46.9516 28.4082 46.4485 28.9114 46.4485 29.5297C46.4485 30.148 46.9516 30.6512 47.57 30.6512C48.1883 30.6512 48.6914 30.148 48.6914 29.5297C48.6914 28.9114 48.1883 28.4082 47.57 28.4082Z" fill="#909E80"/>
<path d="M47.57 28.4082C46.127 28.4082 44.9531 27.2344 44.9531 25.7914C44.9531 24.3484 46.127 23.1746 47.57 23.1746C49.0129 23.1746 50.1868 24.3484 50.1868 25.7914C50.1868 27.2344 49.0129 28.4082 47.57 28.4082ZM47.57 24.6699C46.9516 24.6699 46.4485 25.1731 46.4485 25.7914C46.4485 26.4097 46.9516 26.9129 47.57 26.9129C48.1883 26.9129 48.6914 26.4097 48.6914 25.7914C48.6914 25.1731 48.1883 24.6699 47.57 24.6699Z" fill="#909E80"/>
<path d="M12.6168 50.8382C11.1738 50.8382 10 49.6643 10 48.2213C10 46.7783 11.1738 45.6045 12.6168 45.6045C13.0303 45.6045 13.3645 45.9387 13.3645 46.3522C13.3645 46.7656 13.0303 47.0998 12.6168 47.0998C11.9985 47.0998 11.4953 47.603 11.4953 48.2213C11.4953 48.8397 11.9985 49.3428 12.6168 49.3428C13.0303 49.3428 13.3645 49.677 13.3645 50.0905C13.3645 50.504 13.0303 50.8382 12.6168 50.8382Z" fill="#909E80"/>
<path d="M12.6168 47.0999C11.1738 47.0999 10 45.926 10 44.483C10 43.04 11.1738 41.8662 12.6168 41.8662C13.0303 41.8662 13.3645 42.2004 13.3645 42.6139C13.3645 43.0273 13.0303 43.3615 12.6168 43.3615C11.9985 43.3615 11.4953 43.8647 11.4953 44.483C11.4953 45.1014 11.9985 45.6045 12.6168 45.6045C13.0303 45.6045 13.3645 45.9387 13.3645 46.3522C13.3645 46.7657 13.0303 47.0999 12.6168 47.0999Z" fill="#909E80"/>
<path d="M12.6168 43.3616C11.1738 43.3616 10 42.1878 10 40.7448C10 39.3018 11.1738 38.1279 12.6168 38.1279C13.0303 38.1279 13.3645 38.4629 13.3645 38.8756C13.3645 39.2883 13.0303 39.6233 12.6168 39.6233C11.9985 39.6233 11.4953 40.1264 11.4953 40.7448C11.4953 41.3631 11.9985 41.8663 12.6168 41.8663C13.0303 41.8663 13.3645 42.2005 13.3645 42.6139C13.3645 43.0274 13.0303 43.3616 12.6168 43.3616Z" fill="#909E80"/>
<path d="M12.6168 39.6233C11.1738 39.6233 10 38.4495 10 37.0065C10 35.5635 11.1738 34.3896 12.6168 34.3896C13.0303 34.3896 13.3645 34.7246 13.3645 35.1373C13.3645 35.55 13.0303 35.885 12.6168 35.885C11.9985 35.885 11.4953 36.3882 11.4953 37.0065C11.4953 37.6248 11.9985 38.128 12.6168 38.128C13.0303 38.128 13.3645 38.4629 13.3645 38.8756C13.3645 39.2883 13.0303 39.6233 12.6168 39.6233Z" fill="#909E80"/>
<path d="M12.6168 35.885C11.1738 35.885 10 34.7112 10 33.2682C10 31.8252 11.1738 30.6514 12.6168 30.6514C13.0303 30.6514 13.3645 30.9863 13.3645 31.399C13.3645 31.8117 13.0303 32.1467 12.6168 32.1467C11.9985 32.1467 11.4953 32.6499 11.4953 33.2682C11.4953 33.8865 11.9985 34.3897 12.6168 34.3897C13.0303 34.3897 13.3645 34.7246 13.3645 35.1373C13.3645 35.5501 13.0303 35.885 12.6168 35.885Z" fill="#909E80"/>
<path d="M12.6168 32.1465C11.1738 32.1465 10 30.9727 10 29.5297C10 28.0867 11.1738 26.9128 12.6168 26.9128C13.0303 26.9128 13.3645 27.2478 13.3645 27.6605C13.3645 28.0732 13.0303 28.4082 12.6168 28.4082C11.9985 28.4082 11.4953 28.9114 11.4953 29.5297C11.4953 30.148 11.9985 30.6512 12.6168 30.6512C13.0303 30.6512 13.3645 30.9861 13.3645 31.3988C13.3645 31.8116 13.0303 32.1465 12.6168 32.1465Z" fill="#909E80"/>
<path d="M12.6168 28.4082C11.1738 28.4082 10 27.2344 10 25.7914C10 24.3484 11.1738 23.1746 12.6168 23.1746C13.0303 23.1746 13.3645 23.5095 13.3645 23.9222C13.3645 24.3349 13.0303 24.6699 12.6168 24.6699C11.9985 24.6699 11.4953 25.1731 11.4953 25.7914C11.4953 26.4097 11.9985 26.9129 12.6168 26.9129C13.0303 26.9129 13.3645 27.2478 13.3645 27.6605C13.3645 28.0733 13.0303 28.4082 12.6168 28.4082Z" fill="#909E80"/>
<path d="M37.9029 50.8367C37.4895 50.8367 37.1553 50.5025 37.1553 50.089V22.433C37.1553 22.0203 37.4895 21.6853 37.9029 21.6853C38.3164 21.6853 38.6506 22.0203 38.6506 22.433V50.089C38.6506 50.5025 38.3164 50.8367 37.9029 50.8367Z" fill="#909E80"/>
<path d="M28.4371 50.8367C28.0237 50.8367 27.6895 50.5025 27.6895 50.089V22.433C27.6895 22.0203 28.0237 21.6853 28.4371 21.6853C28.8506 21.6853 29.1848 22.0203 29.1848 22.433V50.089C29.1848 50.5025 28.8506 50.8367 28.4371 50.8367Z" fill="#909E80"/>
<path d="M18.9713 50.8367C18.5578 50.8367 18.2236 50.5025 18.2236 50.089V22.433C18.2236 22.0203 18.5578 21.6853 18.9713 21.6853C19.3848 21.6853 19.719 22.0203 19.719 22.433V50.089C19.719 50.5025 19.3848 50.8367 18.9713 50.8367Z" fill="#909E80"/>
<path d="M52.4298 54.5765H49.4362C49.0227 54.5765 48.6885 54.2422 48.6885 53.8288V50.089C48.6885 49.6755 49.0227 49.3413 49.4362 49.3413H52.4298C52.8433 49.3413 53.1775 49.6755 53.1775 50.089V53.8288C53.1775 54.2422 52.8433 54.5765 52.4298 54.5765ZM50.1838 53.0811H51.6822V50.8366H50.1838V53.0811Z" fill="#909E80"/>
<path d="M47.6566 24.6699H12.6234C12.2579 24.6699 11.9624 24.3349 11.9624 23.9222C11.9624 23.5095 12.2579 23.1746 12.6234 23.1746H47.6566C48.0221 23.1746 48.3176 23.5095 48.3176 23.9222C48.3176 24.3349 48.0221 24.6699 47.6566 24.6699Z" fill="#909E80"/>
<path d="M47.6566 28.4082H12.6234C12.2579 28.4082 11.9624 28.0732 11.9624 27.6605C11.9624 27.2478 12.2579 26.9128 12.6234 26.9128H47.6566C48.0221 26.9128 48.3176 27.2478 48.3176 27.6605C48.3176 28.0732 48.0221 28.4082 47.6566 28.4082Z" fill="#909E80"/>
<path d="M47.6566 32.1467H12.6234C12.2579 32.1467 11.9624 31.8117 11.9624 31.399C11.9624 30.9863 12.2579 30.6514 12.6234 30.6514H47.6566C48.0221 30.6514 48.3176 30.9863 48.3176 31.399C48.3176 31.8117 48.0221 32.1467 47.6566 32.1467Z" fill="#909E80"/>
<path d="M47.6566 35.885H12.6234C12.2579 35.885 11.9624 35.55 11.9624 35.1373C11.9624 34.7246 12.2579 34.3896 12.6234 34.3896H47.6566C48.0221 34.3896 48.3176 34.7246 48.3176 35.1373C48.3176 35.55 48.0221 35.885 47.6566 35.885Z" fill="#909E80"/>
<path d="M47.6566 39.6233H12.6234C12.2579 39.6233 11.9624 39.2883 11.9624 38.8756C11.9624 38.4629 12.2579 38.1279 12.6234 38.1279H47.6566C48.0221 38.1279 48.3176 38.4629 48.3176 38.8756C48.3176 39.2883 48.0221 39.6233 47.6566 39.6233Z" fill="#909E80"/>
<path d="M47.6566 43.3615H12.6234C12.2579 43.3615 11.9624 43.0273 11.9624 42.6139C11.9624 42.2004 12.2579 41.8662 12.6234 41.8662H47.6566C48.0221 41.8662 48.3176 42.2004 48.3176 42.6139C48.3176 43.0273 48.0221 43.3615 47.6566 43.3615Z" fill="#909E80"/>
<path d="M47.6566 47.0998H12.6234C12.2579 47.0998 11.9624 46.7656 11.9624 46.3522C11.9624 45.9387 12.2579 45.6045 12.6234 45.6045H47.6566C48.0221 45.6045 48.3176 45.9387 48.3176 46.3522C48.3176 46.7656 48.0221 47.0998 47.6566 47.0998Z" fill="#909E80"/>
<path d="M46.4449 56.8195H39.7159C39.3025 56.8195 38.9683 56.4853 38.9683 56.0719C38.9683 55.6584 39.3025 55.3242 39.7159 55.3242H46.4449C46.8584 55.3242 47.1926 55.6584 47.1926 56.0719C47.1926 56.4853 46.8584 56.8195 46.4449 56.8195Z" fill="#909E80"/>
<path d="M24.0186 56.8225H17.2897C16.8762 56.8225 16.542 56.4883 16.542 56.0748C16.542 55.6614 16.8762 55.3271 17.2897 55.3271H24.0186C24.4321 55.3271 24.7663 55.6614 24.7663 56.0748C24.7663 56.4883 24.4321 56.8225 24.0186 56.8225Z" fill="#909E80"/>
<path d="M52.4298 44.1121C52.0164 44.1121 51.6821 43.7996 51.6821 43.4146V34.3423C51.6821 33.9572 52.0164 33.6448 52.4298 33.6448C52.8432 33.6448 53.1775 33.9572 53.1775 34.3423V43.4144C53.1775 43.7996 52.8432 44.1121 52.4298 44.1121Z" fill="#909E80"/>
<path d="M69.2503 51.5885H67.023C66.6096 51.5885 66.2754 51.2543 66.2754 50.8409C66.2754 50.4275 66.6096 50.0933 67.023 50.0933H69.2503C69.6637 50.0933 69.9979 50.4275 69.9979 50.8409C69.9979 51.2543 69.6637 51.5885 69.2503 51.5885Z" fill="#909E80"/>
<path d="M69.2501 54.5791C68.8367 54.5791 68.5024 54.2449 68.5024 53.8315V50.8409C68.5024 50.4275 68.8367 50.0933 69.2501 50.0933C69.6635 50.0933 69.9977 50.4275 69.9977 50.8409V53.8315C69.9977 54.2449 69.6635 54.5791 69.2501 54.5791Z" fill="#909E80"/>
<path d="M68.5025 47.8502H67.7549C67.3415 47.8502 67.0073 47.516 67.0073 47.1026C67.0073 46.6892 67.3415 46.355 67.7549 46.355H68.5025C68.9159 46.355 69.2501 46.6892 69.2501 47.1026C69.2501 47.516 68.9159 47.8502 68.5025 47.8502Z" fill="#909E80"/>
<path d="M68.5025 51.5886C68.0891 51.5886 67.7549 51.2544 67.7549 50.841V43.3658C67.7549 42.9531 68.0891 42.6182 68.5025 42.6182C68.9159 42.6182 69.2501 42.9531 69.2501 43.3658V50.841C69.2501 51.2544 68.9159 51.5886 68.5025 51.5886Z" fill="#909E80"/>
<path d="M63.8939 35.1401H52.5545C52.0721 35.1401 51.6821 34.8052 51.6821 34.3924C51.6821 33.9797 52.0721 33.6448 52.5545 33.6448H63.8939C64.3763 33.6448 64.7662 33.9797 64.7662 34.3924C64.7662 34.8052 64.3763 35.1401 63.8939 35.1401Z" fill="#909E80"/>
<path d="M68.5032 44.1133C68.2288 44.1133 67.9648 43.9623 67.8332 43.6999L63.3472 34.7272C63.1626 34.3578 63.312 33.9085 63.6814 33.7239C64.0508 33.5393 64.4994 33.6887 64.6847 34.0581L69.1707 43.0308C69.3554 43.4002 69.2059 43.8495 68.8365 44.0341C68.7297 44.0886 68.6153 44.1133 68.5032 44.1133Z" fill="#909E80"/>
<path d="M58.783 56.0746C57.5464 56.0746 56.54 55.0682 56.54 53.8316C56.54 52.595 57.5464 51.5886 58.783 51.5886C60.0196 51.5886 61.026 52.595 61.026 53.8316C61.026 55.0682 60.0198 56.0746 58.783 56.0746ZM58.783 53.0839C58.3703 53.0839 58.0354 53.4188 58.0354 53.8315C58.0354 54.2442 58.3703 54.5791 58.783 54.5791C59.1957 54.5791 59.5307 54.2442 59.5307 53.8315C59.5308 53.4189 59.1957 53.0839 58.783 53.0839Z" fill="#909E80"/>
<path d="M58.7829 59.0651C55.8977 59.0651 53.5493 56.7167 53.5493 53.8315C53.5493 50.9463 55.8977 48.5979 58.7829 48.5979C61.6681 48.5979 64.0165 50.9463 64.0165 53.8315C64.0165 56.7167 61.6683 59.0651 58.7829 59.0651ZM58.7829 50.0931C56.7216 50.0931 55.0446 51.7702 55.0446 53.8315C55.0446 55.8928 56.7216 57.5699 58.7829 57.5699C60.8442 57.5699 62.5213 55.8928 62.5213 53.8315C62.5213 51.7702 60.8442 50.0931 58.7829 50.0931Z" fill="#909E80"/>
<path d="M54.3158 54.5792H37.8477C37.4343 54.5792 37.1001 54.245 37.1001 53.8316C37.1001 53.4182 37.4343 53.084 37.8477 53.084H54.3158C54.7292 53.084 55.0634 53.4182 55.0634 53.8316C55.0634 54.245 54.7292 54.5792 54.3158 54.5792Z" fill="#909E80"/>
<path d="M69.25 54.5792H63.2686C62.8552 54.5792 62.521 54.245 62.521 53.8316C62.521 53.4182 62.8552 53.084 63.2686 53.084H69.25C69.6634 53.084 69.9976 53.4182 69.9976 53.8316C69.9976 54.245 69.6634 54.5792 69.25 54.5792Z" fill="#909E80"/>
<path d="M68.5026 44.1134H61.0274C60.614 44.1134 60.2798 43.7785 60.2798 43.3658C60.2798 42.9531 60.614 42.6182 61.0274 42.6182H68.5026C68.916 42.6182 69.2502 42.9531 69.2502 43.3658C69.2502 43.7785 68.916 44.1134 68.5026 44.1134Z" fill="#909E80"/>
<path d="M61.0274 44.1134C58.9661 44.1134 57.2891 42.4364 57.2891 40.3751C57.2891 39.9624 57.6233 39.6274 58.0367 39.6274C58.4501 39.6274 58.7843 39.9624 58.7843 40.3751C58.7843 41.6117 59.7907 42.6181 61.0273 42.6181C61.4407 42.6181 61.7749 42.953 61.7749 43.3657C61.7749 43.7784 61.4408 44.1134 61.0274 44.1134Z" fill="#909E80"/>
<path d="M49.4389 47.1027C51.5002 47.1027 53.1772 45.4257 53.1772 43.3643C53.1772 42.9516 52.843 42.6167 52.4296 42.6167C52.0162 42.6167 51.682 42.9516 51.682 43.3643C51.682 44.6009 50.6756 45.6073 49.439 45.6073C49.0256 45.6073 48.6914 45.9423 48.6914 46.355C48.6914 46.7677 49.0255 47.1027 49.4389 47.1027Z" fill="#909E80"/>
<path d="M58.0367 41.1227C57.6233 41.1227 57.2891 40.7878 57.2891 40.3751V34.3929C57.2891 33.9802 57.6233 33.6453 58.0367 33.6453C58.4501 33.6453 58.7843 33.9802 58.7843 34.3929V40.375C58.7843 40.7885 58.4501 41.1227 58.0367 41.1227Z" fill="#909E80"/>
<rect x="0.5" y="0.5" width="79" height="79" rx="39.5" stroke="#909E80"/>
</svg>
