<svg width="116" height="116" viewBox="0 0 116 116" fill="none" xmlns="http://www.w3.org/2000/svg">
<g filter="url(#filter0_d_28_161)">
<g clip-path="url(#clip0_28_161)">
<path d="M81.5079 43.4283C81.3901 42.9877 81.1074 42.6192 80.7122 42.3911L79.2752 41.5614C78.88 41.3333 78.4196 41.2726 77.9786 41.3909C77.538 41.5088 77.1695 41.7914 76.9414 42.1866L76.0838 43.6717C75.7199 43.5008 75.3113 43.463 74.918 43.5683C74.4775 43.6866 74.109 43.9693 73.8808 44.3645L73.8267 44.4579V38.1309C73.8267 36.1114 72.1841 34.4688 70.1646 34.4688H64.8228C64.7034 33.6421 63.9924 33.0039 63.1333 33.0039H60.6431V31.1973C60.6431 29.9857 59.6574 29 58.4458 29H53.0747C51.8632 29 50.8774 29.9857 50.8774 31.1973V33.0039H48.3872C47.5281 33.0039 46.8167 33.6421 46.6977 34.4688H41.356C39.3365 34.4688 37.6938 36.1114 37.6938 38.1309V75.3379C37.6938 77.3574 39.3365 79 41.356 79H64.2121C64.6165 79 64.9445 78.6723 64.9445 78.2676C64.9445 77.8628 64.6165 77.5352 64.2121 77.5352H41.356C40.1444 77.5352 39.1587 76.5494 39.1587 75.3379V38.1309C39.1587 36.9193 40.1444 35.9336 41.356 35.9336H46.6782V39.498C46.6782 40.4403 47.445 41.207 48.3872 41.207H63.1333C64.0755 41.207 64.8423 40.4403 64.8423 39.498V38.8145H69.481V51.9851L62.0282 64.8936C61.7589 65.3598 61.6368 65.89 61.6753 66.4271L62.0019 71.0025C62.0305 71.4026 62.254 71.7631 62.5996 71.9668C62.7904 72.079 63.0044 72.1358 63.2195 72.1358C63.3942 72.1358 63.5693 72.0981 63.7326 72.0225L67.9433 70.0698C68.4476 69.836 68.8611 69.4579 69.1388 68.9769L69.481 68.3845V74.6543H42.0396V38.8145H43.9927C44.397 38.8145 44.7251 38.4868 44.7251 38.082C44.7251 37.6773 44.397 37.3496 43.9927 37.3496H41.7954C41.1221 37.3496 40.5747 37.897 40.5747 38.5703V74.8984C40.5747 75.5717 41.1221 76.1191 41.7954 76.1191H69.7251C70.398 76.1191 70.9458 75.5717 70.9458 74.8984V65.8469L72.3618 63.3945V75.3379C72.3618 76.5494 71.3761 77.5352 70.1646 77.5352H67.6297C67.2253 77.5352 66.8973 77.8628 66.8973 78.2676C66.8973 78.6719 67.2253 79 67.6297 79H70.1646C72.1837 79 73.8267 77.357 73.8267 75.3379V60.8573L80.0057 50.1548L80.9819 48.4641C81.21 48.0689 81.2707 47.6085 81.1524 47.1679C81.0471 46.7746 80.8102 46.44 80.4799 46.21L81.3374 44.7249C81.5655 44.3297 81.6262 43.8693 81.5079 43.4283ZM78.2098 42.9191C78.2769 42.8027 78.426 42.7627 78.5428 42.8298L79.9798 43.6595C80.0557 43.7034 80.0835 43.7713 80.0934 43.8075C80.103 43.8441 80.1129 43.9162 80.069 43.9925L79.2149 45.4715L77.356 44.3984L78.2098 42.9191ZM75.1492 45.0969C75.1931 45.021 75.261 44.9931 75.2972 44.9836C75.3339 44.9733 75.4059 44.9637 75.4819 45.0076L79.6239 47.399C79.7002 47.4429 79.728 47.5104 79.7375 47.5471C79.7475 47.5833 79.757 47.6558 79.7131 47.7317L79.1032 48.788L74.5396 46.1532L75.1492 45.0969ZM52.3423 31.1973C52.3423 30.7933 52.6707 30.4648 53.0747 30.4648H58.4458C58.8498 30.4648 59.1782 30.7933 59.1782 31.1973V33.0039H52.3423V31.1973ZM63.3774 39.498C63.3774 39.6327 63.268 39.7422 63.1333 39.7422H48.3872C48.2525 39.7422 48.1431 39.6327 48.1431 39.498V34.7129C48.1431 34.5782 48.2525 34.4688 48.3872 34.4688H63.1333C63.268 34.4688 63.3774 34.5782 63.3774 34.7129V39.498ZM69.7251 37.3496H64.8423V35.9336H70.1646C71.3761 35.9336 72.3618 36.9193 72.3618 38.1309V46.9955L70.9458 49.4479V38.5703C70.9458 37.897 70.3984 37.3496 69.7251 37.3496ZM73.8072 47.4219L78.3707 50.0567L69.3917 65.6093L64.8278 62.9745L73.8072 47.4219ZM67.8704 68.2445C67.7441 68.463 67.5561 68.6347 67.3272 68.7408V68.7411L63.4377 70.5447L63.1364 66.323C63.1188 66.0789 63.1745 65.8382 63.297 65.6264L64.0954 64.2428L68.6593 66.8777L67.8704 68.2445Z" fill="#909E80"/>
<path d="M45.2593 69.8628C45.3985 69.9868 45.5725 70.0474 45.7453 70.0474C45.9474 70.0474 46.1485 69.9642 46.2931 69.8014L47.7453 68.1664L48.8695 69.5072C49.095 69.7766 49.4257 69.9353 49.7766 69.9436C50.128 69.9498 50.4652 69.8086 50.7028 69.5504L52.0548 68.0825L53.5532 69.7785C53.8214 70.0817 54.2841 70.1104 54.587 69.8426C54.8902 69.5748 54.9188 69.112 54.6511 68.8088L52.9734 66.9098C52.7449 66.6512 52.416 66.5009 52.0712 66.4975C52.067 66.4971 52.0628 66.4971 52.0586 66.4971C51.7179 66.4971 51.3914 66.6401 51.1606 66.8907L49.8136 68.3533L48.686 67.0086C48.4579 66.7366 48.1233 66.5776 47.7678 66.5722C47.4123 66.5642 47.0739 66.7168 46.8382 66.9823L45.1982 68.8286C44.9293 69.1311 44.9568 69.5942 45.2593 69.8628Z" fill="#909E80"/>
<path d="M66.8687 45.1621C66.8687 44.7574 66.5406 44.4297 66.1362 44.4297H45.3354C44.9311 44.4297 44.603 44.7574 44.603 45.1621C44.603 45.5668 44.9311 45.8945 45.3354 45.8945H66.1362C66.5406 45.8945 66.8687 45.5668 66.8687 45.1621Z" fill="#909E80"/>
<path d="M45.4331 49.8008H54.1245C54.5289 49.8008 54.8569 49.4731 54.8569 49.0684C54.8569 48.6636 54.5289 48.3359 54.1245 48.3359H45.4331C45.0287 48.3359 44.7007 48.6636 44.7007 49.0684C44.7007 49.4731 45.0287 49.8008 45.4331 49.8008Z" fill="#909E80"/>
<path d="M61.6929 49.0684C61.6929 48.6636 61.3648 48.3359 60.9605 48.3359H57.5425C57.1381 48.3359 56.8101 48.6636 56.8101 49.0684C56.8101 49.4731 57.1381 49.8008 57.5425 49.8008H60.9605C61.3648 49.8008 61.6929 49.4731 61.6929 49.0684Z" fill="#909E80"/>
<path d="M45.4331 53.707H52.4644C52.8687 53.707 53.1968 53.3793 53.1968 52.9746C53.1968 52.5699 52.8687 52.2422 52.4644 52.2422H45.4331C45.0287 52.2422 44.7007 52.5699 44.7007 52.9746C44.7007 53.3793 45.0287 53.707 45.4331 53.707Z" fill="#909E80"/>
<path d="M58.9097 52.2422H55.5894C55.185 52.2422 54.8569 52.5699 54.8569 52.9746C54.8569 53.3793 55.185 53.707 55.5894 53.707H58.9097C59.314 53.707 59.6421 53.3793 59.6421 52.9746C59.6421 52.5699 59.314 52.2422 58.9097 52.2422Z" fill="#909E80"/>
<path d="M45.4331 57.6133H50.5112C50.9156 57.6133 51.2436 57.2856 51.2436 56.8809C51.2436 56.4761 50.9156 56.1484 50.5112 56.1484H45.4331C45.0287 56.1484 44.7007 56.4761 44.7007 56.8809C44.7007 57.2856 45.0287 57.6133 45.4331 57.6133Z" fill="#909E80"/>
<path d="M59.6421 56.8809C59.6421 56.4761 59.314 56.1484 58.9097 56.1484H53.6362C53.2319 56.1484 52.9038 56.4761 52.9038 56.8809C52.9038 57.2856 53.2319 57.6133 53.6362 57.6133H58.9097C59.314 57.6133 59.6421 57.2856 59.6421 56.8809Z" fill="#909E80"/>
<path d="M45.4331 61.5195H50.5112C50.9156 61.5195 51.2436 61.1918 51.2436 60.7871C51.2436 60.3824 50.9156 60.0547 50.5112 60.0547H45.4331C45.0287 60.0547 44.7007 60.3824 44.7007 60.7871C44.7007 61.1918 45.0287 61.5195 45.4331 61.5195Z" fill="#909E80"/>
</g>
<rect x="4.5" y="0.5" width="107" height="107" rx="53.5" stroke="#909E80" shape-rendering="crispEdges"/>
</g>
<defs>
<filter id="filter0_d_28_161" x="0" y="0" width="116" height="116" filterUnits="userSpaceOnUse" color-interpolation-filters="sRGB">
<feFlood flood-opacity="0" result="BackgroundImageFix"/>
<feColorMatrix in="SourceAlpha" type="matrix" values="0 0 0 0 0 0 0 0 0 0 0 0 0 0 0 0 0 0 127 0" result="hardAlpha"/>
<feOffset dy="4"/>
<feGaussianBlur stdDeviation="2"/>
<feComposite in2="hardAlpha" operator="out"/>
<feColorMatrix type="matrix" values="0 0 0 0 0 0 0 0 0 0 0 0 0 0 0 0 0 0 0.25 0"/>
<feBlend mode="normal" in2="BackgroundImageFix" result="effect1_dropShadow_28_161"/>
<feBlend mode="normal" in="SourceGraphic" in2="effect1_dropShadow_28_161" result="shape"/>
</filter>
<clipPath id="clip0_28_161">
<rect width="46.6667" height="50" fill="white" transform="translate(34.6665 29)"/>
</clipPath>
</defs>
</svg>
