<svg width="116" height="116" viewBox="0 0 116 116" fill="none" xmlns="http://www.w3.org/2000/svg">
<g filter="url(#filter0_d_28_173)">
<g clip-path="url(#clip0_28_173)">
<path d="M57.4791 56.054C56.2301 54.8834 54.2353 54.948 53.0325 56.1979C51.8297 57.4479 51.8673 59.417 53.1164 60.5876C54.3655 61.7581 56.3602 61.6935 57.563 60.4436C58.7659 59.1937 58.7282 57.2245 57.4791 56.054ZM54.2071 59.4542C53.5826 58.8689 53.5638 57.8843 54.1651 57.2594C54.7665 56.6344 55.7639 56.6021 56.3885 57.1874C57.013 57.7726 57.0318 58.7573 56.4304 59.3822C55.829 60.0071 54.8317 60.0395 54.2071 59.4542Z" fill="#909E80"/>
<path d="M52.903 49.6134C54.1521 50.784 56.1469 50.7194 57.3497 49.4695C58.5525 48.2196 58.5148 46.2504 57.2658 45.0799C56.0167 43.9093 54.0219 43.9739 52.8191 45.2238C51.6163 46.4737 51.654 48.443 52.903 49.6134ZM56.1751 46.2133C56.7996 46.7985 56.8184 47.7832 56.217 48.4081C55.6157 49.033 54.6182 49.0653 53.9937 48.4801C53.3692 47.8948 53.3504 46.9102 53.9518 46.2852C54.5531 45.6603 55.5506 45.628 56.1751 46.2133Z" fill="#909E80"/>
<path d="M77.3923 53.7312C77.9639 53.1372 77.7612 51.7846 77.7612 51.7846L75.0304 41.1366C78.586 37.9203 79.0151 33.1328 76.4579 30.7364C72.9034 27.4054 66.0722 30.295 64.3042 35.7151L56.2464 35.0935C55.5291 35.038 54.8311 35.3041 54.3314 35.8234L34.1341 56.8116C33.232 57.749 33.2603 59.2258 34.197 60.1036L48.9202 73.9011C49.7493 74.6781 51.0162 74.7289 51.9219 74.0805L56.4533 77.4115C57.4894 78.173 58.9716 77.9516 59.7575 76.9179L77.3923 53.7312ZM39.0837 53.9063L54.9395 68.7652L53.8489 69.8985L37.9931 55.0396L39.0837 53.9063ZM57.4462 68.3986L61.8304 71.6213L60.8802 72.8715L56.3482 69.5396C56.682 69.1927 57.1149 68.7429 57.4462 68.3986ZM76.1008 52.8464L62.7806 70.3713L58.5445 67.2575L72.4523 52.805C72.9521 52.2857 73.1852 51.5841 73.0922 50.8801L71.5422 39.1515L72.2517 39.1235C72.622 39.1089 72.9439 39.3456 73.0344 39.6988L76.2366 52.1854C76.2953 52.4145 76.2459 52.6554 76.1008 52.8464ZM75.3673 31.8697C77.1928 33.5804 76.8278 36.9104 74.583 39.3923C74.2671 38.1613 73.2735 37.5302 72.2109 37.5721L71.2835 37.6086C70.9821 36.769 70.2151 36.1712 69.2791 36.0989L65.9114 35.8391C67.5464 31.6244 72.7858 29.4505 75.3673 31.8697ZM56.1022 36.6414L63.9676 37.2482C63.7858 38.8249 64.131 40.335 65.0298 41.4929C64.6526 41.8849 64.7121 42.3601 65.0066 42.6361C65.3194 42.9291 65.8171 42.913 66.1182 42.6001L67.2088 41.4668C67.51 41.1538 67.5006 40.6625 67.1878 40.3695C66.8965 40.0964 66.4449 40.092 66.1409 40.3457C65.584 39.5226 65.3831 38.4751 65.5191 37.3679L69.135 37.6469C69.5037 37.6754 69.7946 37.948 69.8425 38.31C69.9917 39.4381 71.3706 49.8742 71.5329 51.102C71.564 51.3367 71.4863 51.5705 71.3197 51.7436L56.0301 67.6319L40.1743 52.773L55.4639 36.8847C55.6305 36.7116 55.8631 36.623 56.1022 36.6414ZM50.0108 72.7678L35.2876 58.9703C34.9754 58.6777 34.966 58.1854 35.2666 57.8729L36.9025 56.173L52.7583 71.0318L51.1224 72.7318C50.8217 73.0442 50.3231 73.0604 50.0108 72.7678ZM57.4034 76.1614L53.0533 72.9636C53.814 72.173 54.4889 71.4717 55.25 70.6808L59.9301 74.1215L58.5048 75.9967C58.2429 76.3414 57.7488 76.4152 57.4034 76.1614Z" fill="#909E80"/>
<path d="M45.7524 53.6883C45.8974 53.8242 46.0955 53.9047 46.3126 53.8976L64.0991 53.3219C64.5332 53.3079 64.8785 52.9491 64.8703 52.5205C64.862 52.0919 64.5036 51.756 64.0694 51.77L46.2828 52.3457C45.5803 52.3684 45.2525 53.2199 45.7524 53.6883Z" fill="#909E80"/>
</g>
<rect x="4.5" y="0.5" width="107" height="107" rx="53.5" stroke="#909E80" shape-rendering="crispEdges"/>
</g>
<defs>
<filter id="filter0_d_28_173" x="0" y="0" width="116" height="116" filterUnits="userSpaceOnUse" color-interpolation-filters="sRGB">
<feFlood flood-opacity="0" result="BackgroundImageFix"/>
<feColorMatrix in="SourceAlpha" type="matrix" values="0 0 0 0 0 0 0 0 0 0 0 0 0 0 0 0 0 0 127 0" result="hardAlpha"/>
<feOffset dy="4"/>
<feGaussianBlur stdDeviation="2"/>
<feComposite in2="hardAlpha" operator="out"/>
<feColorMatrix type="matrix" values="0 0 0 0 0 0 0 0 0 0 0 0 0 0 0 0 0 0 0.25 0"/>
<feBlend mode="normal" in2="BackgroundImageFix" result="effect1_dropShadow_28_173"/>
<feBlend mode="normal" in="SourceGraphic" in2="effect1_dropShadow_28_173" result="shape"/>
</filter>
<clipPath id="clip0_28_173">
<rect width="50" height="50" fill="white" transform="translate(33 29)"/>
</clipPath>
</defs>
</svg>
