<svg width="116" height="116" viewBox="0 0 116 116" fill="none" xmlns="http://www.w3.org/2000/svg">
<g filter="url(#filter0_d_28_151)">
<g clip-path="url(#clip0_28_151)">
<path d="M75.3901 76.0977L75.812 74.6943L82.7476 76.7794L82.3257 78.1827L75.3901 76.0977Z" fill="#909E80"/>
<path d="M72.4595 75.2183L72.8813 73.8149L74.3467 74.2555L73.9248 75.6588L72.4595 75.2183Z" fill="#909E80"/>
<path d="M71.1836 64.0584V59.04H69.7188V64.2478C69.2298 64.3148 68.7414 64.385 68.2539 64.4603V56.0343C68.7347 56.1486 69.238 56.1486 69.7188 56.0339V57.5751H71.1836V55.6745C72.2694 56.3269 73.6788 56.2626 74.6984 55.4771C76.4546 56.7787 78.2732 55.968 79.5955 54.4895C78.6068 53.6403 77.3729 52.5677 76.8441 51.3578C77.372 51.1383 78.1154 50.4344 78.5659 50.0742C77.1974 49.0906 76.4018 48.4889 75.6542 46.9165C76.1342 46.7117 76.9041 46.0934 77.3387 45.7891C76.3227 44.8473 75.1838 43.7364 74.5291 42.5103C74.9358 42.3049 75.605 41.6419 75.9582 41.3423C75.9582 41.3423 74.0758 40.2067 72.3205 36.694C72.5505 36.1541 72.5063 35.549 72.1901 35.0405L68.9407 29.814L64.9919 36.0574C64.6494 36.5941 64.5834 37.2742 64.8217 37.8651C64.8217 37.8651 63.7244 40.0244 61.9121 41.3425C62.2687 41.6445 62.9303 42.3012 63.3395 42.5097C63.3395 42.5097 62.5565 44.0805 60.5336 45.7905C60.9723 46.0976 61.7324 46.7092 62.2161 46.9168C61.5323 48.3865 60.6195 49.2006 59.2688 50.0446C59.7389 50.4195 60.5011 51.1459 61.0534 51.3707C60.4017 52.83 59.5151 53.4647 58.3771 54.4895C59.7114 55.9719 61.5045 56.778 63.2728 55.4769C64.2928 56.2628 65.7028 56.3268 66.7889 55.6733V64.7002C66.3372 64.837 50.1166 67.3651 49.2098 67.5144V60.0244C50.3021 60.7098 51.7404 60.6546 52.7758 59.8568C54.5312 61.1575 56.3503 60.3487 57.6729 58.8694C56.6098 58.1917 54.9214 55.7377 54.9214 55.7377C55.4493 55.5182 56.1928 54.8142 56.6433 54.454C55.2747 53.4703 54.4792 52.8688 53.7315 51.2963C54.2115 51.0915 54.9814 50.4732 55.416 50.1689C54.2312 49.5675 52.6063 46.89 52.6063 46.89C53.0132 46.6847 53.6822 46.0216 54.0355 45.7221C52.22 44.6178 48.2823 37.5565 47.0127 35.6288C47.0126 35.6289 44.5371 39.6102 44.5371 39.6102L45.7811 40.3837L47.0125 38.4031C47.8904 39.669 50.6755 44.7271 51.8418 45.6396C50.602 46.2365 49.8641 45.5336 48.9937 44.7202C47.8954 46.1908 45.9403 45.8784 45.0306 44.7201C44.1602 45.5342 43.4212 46.2357 42.183 45.6396C43.1819 44.8112 44.2375 42.8152 44.9436 41.7307L43.6996 40.9571C43.1461 41.7855 42.0873 43.7629 41.3465 44.4108L39.9894 45.7223C40.3459 46.0243 41.0074 46.6811 41.4166 46.8896C41.4166 46.8896 40.6396 48.432 38.611 50.1703C39.0496 50.4774 39.8097 51.0891 40.2934 51.2967C39.6094 52.7666 38.6967 53.5804 37.3459 54.4244C37.816 54.7993 38.5782 55.5257 39.1306 55.7505C38.4788 57.2099 37.5923 57.8444 36.4542 58.8692L37.3318 59.6795C38.4495 60.7112 40.1639 60.7702 41.3499 59.8567C42.354 60.6304 43.7361 60.7041 44.8149 60.0829V68.2078L37.9664 69.2886H33V70.7534C45.5158 70.5378 58.7733 70.615 70.9729 74.7818L71.3943 73.379C63.4233 70.8894 55.2121 69.4769 47.2305 69.3097C57.6913 67.866 72.5284 64.5404 83 64.9108V63.4459C83 63.4459 75.3674 63.3202 71.1836 64.0584ZM66.23 36.8404L68.93 32.5712C68.9504 32.7431 71.3072 36.0452 70.9547 36.1595C70.9182 36.225 70.8312 36.3348 70.6565 36.3348H69.1589C68.3431 36.3348 67.5907 36.7434 67.1467 37.4276C66.7589 38.0177 65.8528 37.4401 66.23 36.8404ZM65.8645 38.9622C66.7482 39.3607 67.8334 39.061 68.3755 38.2252C68.9115 37.4005 70.4646 38.0314 71.2269 37.7092C71.9012 38.7603 72.8046 40.4546 73.7645 41.2598C72.5246 41.8567 71.9058 41.3297 70.9165 40.3404C69.8122 41.9272 68.017 41.7028 66.9533 40.3404C66.0829 41.1545 65.3438 41.8559 64.1059 41.2598C64.1059 41.2597 65.2634 40.0369 65.8645 38.9622ZM64.8024 42.9333C65.5556 42.9715 66.3192 42.7549 66.9531 42.2823C68.1264 43.1567 69.7433 43.1567 70.9165 42.2823C71.5513 42.7543 72.3089 42.9723 73.0672 42.9337C73.6246 43.8575 74.251 44.8418 75.0288 45.5924C73.6548 46.2336 72.4617 45.7212 71.3568 44.8043C70.104 46.0571 68.1666 46.0786 66.5127 44.8043C65.674 45.643 64.2119 46.2331 62.8397 45.5913C63.6894 44.8731 64.8024 42.9333 64.8024 42.9333ZM63.6614 47.3169C64.6442 47.4136 65.6519 47.1776 66.5128 46.609C67.9847 47.5813 69.885 47.5813 71.3569 46.609C72.2189 47.1763 73.2151 47.4146 74.2089 47.3164C74.7027 48.3173 75.3079 49.3236 76.154 50.0634C74.91 50.5803 74.0364 50.0282 73.1596 49.1514C72.17 50.5293 70.2139 50.7322 68.9346 49.1513C67.9475 50.4171 66.14 50.5817 64.7096 49.1513C63.8027 49.9752 62.9581 50.5791 61.7168 50.0633C62.8397 49.2052 63.6614 47.3169 63.6614 47.3169ZM63.2729 53.4999C62.4658 54.2663 61.7853 55.0432 60.5934 54.4673C61.4543 53.7483 62.0372 52.7038 62.5297 51.7105C63.2921 51.7245 64.058 51.5022 64.7097 51.042C65.9742 51.9355 67.6699 51.9355 68.9346 51.042C70.1991 51.9354 71.8949 51.9353 73.1596 51.042C73.8168 51.5053 74.587 51.7304 75.3583 51.7106C75.8928 52.6836 76.5062 53.7619 77.3795 54.4676C76.1917 55.0451 75.5017 54.2646 74.6985 53.5001C74.0857 54.8089 72.0056 55.1215 70.8896 53.5001C70.0749 54.9113 67.7901 54.6347 67.081 53.4998C66.2223 54.9051 64.464 55.0547 63.2729 53.4999ZM42.3268 48.1972L42.8799 47.3132C43.6331 47.3514 44.3968 47.1348 45.0307 46.6622C46.204 47.5366 47.8209 47.5366 48.994 46.6622C49.6288 47.1342 50.3863 47.3522 51.1446 47.3135C51.7021 48.2374 52.3282 49.2215 53.1063 49.9723C51.7324 50.6133 50.5391 50.101 49.4343 49.1841C47.8601 50.5962 46.1546 50.5825 44.5901 49.184C43.4855 50.1016 42.2893 50.6131 40.9171 49.9712C41.4516 49.435 41.9254 48.8388 42.3268 48.1972ZM41.739 51.6968C42.7217 51.7935 43.7293 51.5576 44.5902 50.9888C46.0621 51.961 47.9624 51.9609 49.4344 50.9888C50.2964 51.5561 51.2926 51.7942 52.2863 51.6962C52.7802 52.6972 53.3853 53.7035 54.2314 54.4432C52.9873 54.9601 52.1447 54.3546 51.237 53.5312C50.333 54.6693 48.5335 55.0527 47.0119 53.5312C46.1112 54.6693 44.38 55.124 42.787 53.5311C41.8803 54.355 41.0357 54.959 39.7942 54.4431C40.9172 53.5499 41.739 51.6968 41.739 51.6968ZM41.3504 57.8798C40.5434 58.6462 39.8628 59.423 38.6709 58.8473C39.5316 58.1285 40.1148 57.0838 40.6072 56.0904C41.3696 56.1045 42.1355 55.8821 42.7872 55.4219C44.052 56.3153 45.7477 56.3152 47.0121 55.4219C48.2768 56.3152 49.9726 56.3152 51.2371 55.4219C51.8943 55.8852 52.6646 56.1103 53.4358 56.0904C53.9703 57.0635 54.5839 58.142 55.457 58.8475C54.2692 59.4251 53.5792 58.6443 52.7761 57.88C51.9217 59.2811 49.5827 59.1856 48.9672 57.88C48.2923 59.0489 46.0099 59.0489 45.1585 57.8799C44.2997 59.0489 42.6971 59.468 41.3504 57.8798ZM46.2803 60.4011C46.7596 60.5236 47.2627 60.5307 47.7451 60.424V67.7456L46.2803 67.9768V60.4011Z" fill="#909E80"/>
<path d="M34.5625 72.2285H36.0273V73.6934H34.5625V72.2285Z" fill="#909E80"/>
<path d="M37.4922 72.2285H38.957V73.6934H37.4922V72.2285Z" fill="#909E80"/>
<path d="M77.043 66.3569H78.5078V67.8218H77.043V66.3569Z" fill="#909E80"/>
<path d="M79.9727 66.3569H81.4375V67.8218H79.9727V66.3569Z" fill="#909E80"/>
</g>
<rect x="4.5" y="0.5" width="107" height="107" rx="53.5" stroke="#909E80" shape-rendering="crispEdges"/>
</g>
<defs>
<filter id="filter0_d_28_151" x="0" y="0" width="116" height="116" filterUnits="userSpaceOnUse" color-interpolation-filters="sRGB">
<feFlood flood-opacity="0" result="BackgroundImageFix"/>
<feColorMatrix in="SourceAlpha" type="matrix" values="0 0 0 0 0 0 0 0 0 0 0 0 0 0 0 0 0 0 127 0" result="hardAlpha"/>
<feOffset dy="4"/>
<feGaussianBlur stdDeviation="2"/>
<feComposite in2="hardAlpha" operator="out"/>
<feColorMatrix type="matrix" values="0 0 0 0 0 0 0 0 0 0 0 0 0 0 0 0 0 0 0.25 0"/>
<feBlend mode="normal" in2="BackgroundImageFix" result="effect1_dropShadow_28_151"/>
<feBlend mode="normal" in="SourceGraphic" in2="effect1_dropShadow_28_151" result="shape"/>
</filter>
<clipPath id="clip0_28_151">
<rect width="50" height="50" fill="white" transform="translate(33 29)"/>
</clipPath>
</defs>
</svg>
